<svg width="596" height="102" viewBox="0 0 596 102" fill="none" xmlns="http://www.w3.org/2000/svg">
<rect x="0.5" y="0.5" width="298" height="81" rx="3.5" stroke="black" stroke-opacity="0.87" stroke-dasharray="2 2"/>
<rect x="451.5" y="0.5" width="144" height="81" rx="3.5" stroke="black" stroke-opacity="0.87" stroke-dasharray="2 2"/>
<rect x="174.5" y="22.5" width="85" height="37" rx="2.5" stroke="black"/>
<path d="M194.229 40.0254V48.8438H192.957V38.6035H194.119L194.229 40.0254ZM199.212 42.2402V42.3838C199.212 42.9215 199.148 43.4206 199.021 43.8809C198.893 44.3366 198.706 44.7331 198.46 45.0703C198.218 45.4076 197.92 45.6696 197.564 45.8564C197.209 46.0433 196.801 46.1367 196.341 46.1367C195.871 46.1367 195.457 46.0592 195.097 45.9043C194.737 45.7493 194.431 45.5238 194.181 45.2275C193.93 44.9313 193.729 44.5758 193.579 44.1611C193.433 43.7464 193.333 43.2793 193.278 42.7598V41.9941C193.333 41.4473 193.436 40.9574 193.586 40.5244C193.736 40.0915 193.935 39.7223 194.181 39.417C194.431 39.1071 194.734 38.8724 195.09 38.7129C195.445 38.5488 195.855 38.4668 196.32 38.4668C196.785 38.4668 197.198 38.5579 197.558 38.7402C197.918 38.918 198.221 39.1732 198.467 39.5059C198.713 39.8385 198.897 40.2373 199.021 40.7021C199.148 41.1624 199.212 41.6751 199.212 42.2402ZM197.94 42.3838V42.2402C197.94 41.8711 197.902 41.5247 197.824 41.2012C197.747 40.873 197.626 40.5859 197.462 40.3398C197.302 40.0892 197.097 39.8932 196.847 39.752C196.596 39.6061 196.298 39.5332 195.951 39.5332C195.632 39.5332 195.354 39.5879 195.117 39.6973C194.885 39.8066 194.687 39.9548 194.522 40.1416C194.358 40.3239 194.224 40.5335 194.119 40.7705C194.019 41.0029 193.944 41.2445 193.894 41.4951V43.2656C193.985 43.5846 194.112 43.8854 194.276 44.168C194.44 44.446 194.659 44.6715 194.933 44.8447C195.206 45.0133 195.55 45.0977 195.965 45.0977C196.307 45.0977 196.601 45.027 196.847 44.8857C197.097 44.7399 197.302 44.5417 197.462 44.291C197.626 44.0404 197.747 43.7533 197.824 43.4297C197.902 43.1016 197.94 42.7529 197.94 42.3838ZM202.09 39.7656V46H200.825V38.6035H202.056L202.09 39.7656ZM204.4 38.5625L204.394 39.7383C204.289 39.7155 204.188 39.7018 204.093 39.6973C204.002 39.6882 203.897 39.6836 203.778 39.6836C203.487 39.6836 203.229 39.7292 203.006 39.8203C202.783 39.9115 202.593 40.0391 202.438 40.2031C202.284 40.3672 202.16 40.5632 202.069 40.791C201.983 41.0143 201.926 41.2604 201.898 41.5293L201.543 41.7344C201.543 41.2878 201.586 40.8685 201.673 40.4766C201.764 40.0846 201.903 39.7383 202.09 39.4375C202.277 39.1322 202.514 38.8952 202.801 38.7266C203.092 38.5534 203.439 38.4668 203.84 38.4668C203.931 38.4668 204.036 38.4782 204.154 38.501C204.273 38.5192 204.355 38.5397 204.4 38.5625ZM205.098 42.3838V42.2266C205.098 41.6934 205.175 41.1989 205.33 40.7432C205.485 40.2829 205.708 39.8841 206 39.5469C206.292 39.2051 206.645 38.9408 207.06 38.7539C207.474 38.5625 207.939 38.4668 208.454 38.4668C208.974 38.4668 209.441 38.5625 209.855 38.7539C210.275 38.9408 210.63 39.2051 210.922 39.5469C211.218 39.8841 211.444 40.2829 211.599 40.7432C211.754 41.1989 211.831 41.6934 211.831 42.2266V42.3838C211.831 42.917 211.754 43.4115 211.599 43.8672C211.444 44.3229 211.218 44.7217 210.922 45.0635C210.63 45.4007 210.277 45.665 209.862 45.8564C209.452 46.0433 208.987 46.1367 208.468 46.1367C207.948 46.1367 207.481 46.0433 207.066 45.8564C206.652 45.665 206.296 45.4007 206 45.0635C205.708 44.7217 205.485 44.3229 205.33 43.8672C205.175 43.4115 205.098 42.917 205.098 42.3838ZM206.362 42.2266V42.3838C206.362 42.7529 206.406 43.1016 206.492 43.4297C206.579 43.7533 206.709 44.0404 206.882 44.291C207.06 44.5417 207.281 44.7399 207.545 44.8857C207.809 45.027 208.117 45.0977 208.468 45.0977C208.814 45.0977 209.117 45.027 209.377 44.8857C209.641 44.7399 209.86 44.5417 210.033 44.291C210.206 44.0404 210.336 43.7533 210.423 43.4297C210.514 43.1016 210.56 42.7529 210.56 42.3838V42.2266C210.56 41.862 210.514 41.5179 210.423 41.1943C210.336 40.8662 210.204 40.5768 210.026 40.3262C209.853 40.071 209.634 39.8704 209.37 39.7246C209.11 39.5788 208.805 39.5059 208.454 39.5059C208.108 39.5059 207.802 39.5788 207.538 39.7246C207.278 39.8704 207.06 40.071 206.882 40.3262C206.709 40.5768 206.579 40.8662 206.492 41.1943C206.406 41.5179 206.362 41.862 206.362 42.2266ZM214.675 40.0732V46H213.403V38.6035H214.606L214.675 40.0732ZM214.415 42.0215L213.827 42.001C213.832 41.4951 213.898 41.028 214.025 40.5996C214.153 40.1667 214.342 39.7907 214.593 39.4717C214.843 39.1527 215.156 38.9066 215.529 38.7334C215.903 38.5557 216.336 38.4668 216.828 38.4668C217.174 38.4668 217.493 38.5169 217.785 38.6172C218.077 38.7129 218.33 38.8656 218.544 39.0752C218.758 39.2848 218.924 39.5537 219.043 39.8818C219.161 40.21 219.221 40.6064 219.221 41.0713V46H217.956V41.1328C217.956 40.7454 217.89 40.4355 217.758 40.2031C217.63 39.9707 217.448 39.8021 217.211 39.6973C216.974 39.5879 216.696 39.5332 216.377 39.5332C216.003 39.5332 215.691 39.5993 215.44 39.7314C215.19 39.8636 214.989 40.0459 214.839 40.2783C214.688 40.5107 214.579 40.7773 214.511 41.0781C214.447 41.3743 214.415 41.6888 214.415 42.0215ZM219.207 41.3242L218.359 41.584C218.364 41.1784 218.43 40.7887 218.558 40.415C218.69 40.0413 218.879 39.7087 219.125 39.417C219.376 39.1253 219.683 38.8952 220.048 38.7266C220.412 38.5534 220.829 38.4668 221.299 38.4668C221.695 38.4668 222.046 38.5192 222.352 38.624C222.661 38.7288 222.921 38.8906 223.131 39.1094C223.345 39.3236 223.507 39.5993 223.616 39.9365C223.726 40.2738 223.78 40.6748 223.78 41.1396V46H222.509V41.126C222.509 40.7113 222.443 40.39 222.311 40.1621C222.183 39.9297 222.001 39.7679 221.764 39.6768C221.531 39.5811 221.253 39.5332 220.93 39.5332C220.652 39.5332 220.406 39.5811 220.191 39.6768C219.977 39.7725 219.797 39.9046 219.651 40.0732C219.506 40.2373 219.394 40.4264 219.316 40.6406C219.243 40.8548 219.207 41.0827 219.207 41.3242ZM228.791 38.6035V39.5742H224.792V38.6035H228.791ZM226.146 36.8057H227.41V44.168C227.41 44.4186 227.449 44.6077 227.526 44.7354C227.604 44.863 227.704 44.9473 227.827 44.9883C227.95 45.0293 228.082 45.0498 228.224 45.0498C228.328 45.0498 228.438 45.0407 228.552 45.0225C228.67 44.9997 228.759 44.9814 228.818 44.9678L228.825 46C228.725 46.0319 228.593 46.0615 228.429 46.0889C228.269 46.1208 228.076 46.1367 227.848 46.1367C227.538 46.1367 227.253 46.0752 226.993 45.9521C226.733 45.8291 226.526 45.624 226.371 45.3369C226.221 45.0452 226.146 44.6533 226.146 44.1611V36.8057ZM234.8 44.291V38.6035H236.071V46H234.861L234.8 44.291ZM235.039 42.7324L235.565 42.7188C235.565 43.2109 235.513 43.6667 235.408 44.0859C235.308 44.5007 235.144 44.8607 234.916 45.166C234.688 45.4714 234.39 45.7106 234.021 45.8838C233.651 46.0524 233.202 46.1367 232.674 46.1367C232.314 46.1367 231.983 46.0843 231.683 45.9795C231.386 45.8747 231.131 45.7129 230.917 45.4941C230.703 45.2754 230.536 44.9906 230.418 44.6396C230.304 44.2887 230.247 43.8672 230.247 43.375V38.6035H231.512V43.3887C231.512 43.7214 231.548 43.9971 231.621 44.2158C231.699 44.43 231.801 44.6009 231.929 44.7285C232.061 44.8516 232.207 44.9382 232.366 44.9883C232.53 45.0384 232.699 45.0635 232.872 45.0635C233.41 45.0635 233.836 44.9609 234.15 44.7559C234.465 44.5462 234.69 44.266 234.827 43.915C234.968 43.5596 235.039 43.1654 235.039 42.7324ZM239.264 40.1826V46H237.999V38.6035H239.195L239.264 40.1826ZM238.963 42.0215L238.437 42.001C238.441 41.4951 238.516 41.028 238.662 40.5996C238.808 40.1667 239.013 39.7907 239.277 39.4717C239.542 39.1527 239.856 38.9066 240.221 38.7334C240.59 38.5557 240.998 38.4668 241.444 38.4668C241.809 38.4668 242.137 38.5169 242.429 38.6172C242.72 38.7129 242.969 38.8678 243.174 39.082C243.383 39.2962 243.543 39.5742 243.652 39.916C243.762 40.2533 243.816 40.6657 243.816 41.1533V46H242.545V41.1396C242.545 40.7523 242.488 40.4424 242.374 40.21C242.26 39.973 242.094 39.8021 241.875 39.6973C241.656 39.5879 241.387 39.5332 241.068 39.5332C240.754 39.5332 240.467 39.5993 240.207 39.7314C239.952 39.8636 239.731 40.0459 239.544 40.2783C239.362 40.5107 239.218 40.7773 239.113 41.0781C239.013 41.3743 238.963 41.6888 238.963 42.0215Z" fill="black"/>
<path d="M100 42L105 44.8868V39.1132L100 42ZM104.5 42.5L174 42.5V41.5L104.5 41.5V42.5Z" fill="black"/>
<path d="M68.0708 9C85.6283 9 100.024 23.2301 100 40.528C99.9764 58.1091 85.6283 72.1268 67.6932 72.1268C50.1829 72.1032 36 57.8731 36 40.292C36.0236 23.0885 50.4661 9 68.0708 9V9ZM58.3717 20.0678C58.7729 22.0265 58.3717 23.8673 57.7817 25.6844C57.3805 26.9351 56.7905 28.1386 56.4602 29.413C55.8938 31.5133 55.2566 33.6136 55.0206 35.7375C54.6903 38.8053 55.8938 41.5192 57.9705 44.2094C54.5959 43.5015 51.528 42.8643 48.413 42.2035C48.4366 42.5103 48.413 42.6283 48.4366 42.7227C49.3333 45.3658 50.938 47.5841 52.7316 49.7079C52.9203 49.9203 53.3451 50.0383 53.6755 50.0383C63.2094 50.0619 72.7197 50.0619 82.2537 50.0383C82.5604 50.0383 82.938 49.9911 83.1268 49.8023C85.1799 47.6784 86.7374 45.2478 87.705 42.1799C84.2124 42.8643 80.8849 43.5015 77.5811 44.1386C78.2419 42.8407 79.0206 41.6843 79.4454 40.4336C80.9321 36.1386 80.3186 31.9852 78.1711 28.0678C76.4484 24.9292 74.8436 21.7906 75.7168 18.0147C73.8997 19.8083 73.1917 22.0737 72.7433 24.4336C72.295 26.7463 72.059 29.0826 71.705 31.4425C71.6578 31.3717 71.587 31.3245 71.587 31.2537C71.5398 31.0177 71.5162 30.7581 71.4926 30.5221C71.2802 26.6755 70.5251 22.9705 68.9439 19.4543C68 17.3776 66.9616 15.2537 67.9292 12.7758C67.2684 13.1298 66.6784 13.4602 66.2537 13.9557C64.9793 15.4189 64.4602 17.1416 64.3422 19.0531C64.2242 20.6814 64.059 22.3333 63.7758 23.938C63.4454 25.6136 62.9498 27.2655 61.8171 28.823C61.3923 25.4484 61.3451 22.1681 58.3717 20.0678V20.0678ZM82.938 52.941H53.0619V58.1091H82.938V52.941ZM58.9852 60.7522C58.9616 65.0472 63.3746 68.2566 68.8023 68.0206C73.3097 67.8318 77.2979 64.292 76.9675 60.7522H58.9852Z" fill="#E75225"/>
<path d="M88.2676 98.2617L90.5713 91.6035H91.4531L88.3223 100.189C88.2585 100.358 88.1764 100.545 88.0762 100.75C87.9805 100.955 87.8529 101.151 87.6934 101.338C87.5384 101.529 87.3424 101.684 87.1055 101.803C86.873 101.926 86.5882 101.987 86.251 101.987C86.1644 101.987 86.0527 101.976 85.916 101.953C85.7839 101.935 85.6882 101.917 85.6289 101.898L85.6221 101.208C85.6722 101.222 85.7451 101.233 85.8408 101.242C85.9365 101.251 86.0026 101.256 86.0391 101.256C86.3353 101.256 86.5837 101.206 86.7842 101.105C86.9893 101.005 87.1602 100.855 87.2969 100.654C87.4336 100.458 87.5544 100.212 87.6592 99.916L88.2676 98.2617ZM86.1143 91.6035L88.4727 97.9541L88.6914 98.8086L88.0967 99.1436L85.2256 91.6035H86.1143ZM92.1709 95.418V95.1924C92.1709 94.6546 92.2484 94.1579 92.4033 93.7021C92.5583 93.2464 92.7793 92.8522 93.0664 92.5195C93.3581 92.1868 93.7067 91.9294 94.1123 91.7471C94.5179 91.5602 94.9691 91.4668 95.4658 91.4668C95.9671 91.4668 96.4206 91.5602 96.8262 91.7471C97.2318 91.9294 97.5804 92.1868 97.8721 92.5195C98.1637 92.8522 98.387 93.2464 98.542 93.7021C98.6969 94.1579 98.7744 94.6546 98.7744 95.1924V95.418C98.7744 95.9557 98.6969 96.4525 98.542 96.9082C98.387 97.3594 98.1637 97.7513 97.8721 98.084C97.585 98.4167 97.2386 98.6764 96.833 98.8633C96.4274 99.0456 95.9762 99.1367 95.4795 99.1367C94.9782 99.1367 94.5247 99.0456 94.1191 98.8633C93.7135 98.6764 93.3649 98.4167 93.0732 98.084C92.7816 97.7513 92.5583 97.3594 92.4033 96.9082C92.2484 96.4525 92.1709 95.9557 92.1709 95.418ZM92.9844 95.1924V95.418C92.9844 95.8236 93.0391 96.2087 93.1484 96.5732C93.2578 96.9333 93.4173 97.2546 93.627 97.5371C93.8366 97.8151 94.0964 98.0339 94.4062 98.1934C94.7161 98.3529 95.0739 98.4326 95.4795 98.4326C95.8805 98.4326 96.2337 98.3529 96.5391 98.1934C96.849 98.0339 97.1087 97.8151 97.3184 97.5371C97.528 97.2546 97.6852 96.9333 97.79 96.5732C97.8994 96.2087 97.9541 95.8236 97.9541 95.418V95.1924C97.9541 94.7913 97.8994 94.4108 97.79 94.0508C97.6852 93.6908 97.5257 93.3695 97.3115 93.0869C97.1019 92.8044 96.8421 92.5811 96.5322 92.417C96.2223 92.2529 95.8669 92.1709 95.4658 92.1709C95.0648 92.1709 94.7093 92.2529 94.3994 92.417C94.0941 92.5811 93.8343 92.8044 93.6201 93.0869C93.4105 93.3695 93.251 93.6908 93.1416 94.0508C93.0368 94.4108 92.9844 94.7913 92.9844 95.1924ZM105.207 97.291V91.6035H106.027V99H105.241L105.207 97.291ZM105.357 95.9238L105.781 95.9102C105.781 96.375 105.727 96.8034 105.617 97.1953C105.508 97.5872 105.337 97.929 105.104 98.2207C104.872 98.5124 104.571 98.738 104.202 98.8975C103.833 99.057 103.389 99.1367 102.869 99.1367C102.509 99.1367 102.179 99.0866 101.878 98.9863C101.582 98.8815 101.326 98.7174 101.112 98.4941C100.898 98.2708 100.732 97.9814 100.613 97.626C100.499 97.2705 100.442 96.8398 100.442 96.334V91.6035H101.256V96.3477C101.256 96.7441 101.299 97.0745 101.386 97.3389C101.477 97.6032 101.6 97.8151 101.755 97.9746C101.914 98.1341 102.097 98.248 102.302 98.3164C102.507 98.3848 102.728 98.4189 102.965 98.4189C103.566 98.4189 104.04 98.3027 104.387 98.0703C104.738 97.8379 104.986 97.5326 105.132 97.1543C105.282 96.7715 105.357 96.3613 105.357 95.9238ZM108.98 92.8271V99H108.167V91.6035H108.96L108.98 92.8271ZM111.599 91.5488L111.578 92.3008C111.487 92.2871 111.398 92.2757 111.312 92.2666C111.225 92.2575 111.132 92.2529 111.031 92.2529C110.676 92.2529 110.364 92.319 110.095 92.4512C109.83 92.5788 109.607 92.7588 109.425 92.9912C109.243 93.2191 109.104 93.488 109.008 93.7979C108.912 94.1032 108.857 94.4313 108.844 94.7822L108.543 94.8984C108.543 94.4154 108.593 93.9665 108.693 93.5518C108.794 93.137 108.946 92.7747 109.151 92.4648C109.361 92.1504 109.623 91.9066 109.938 91.7334C110.257 91.5557 110.63 91.4668 111.059 91.4668C111.163 91.4668 111.266 91.4759 111.366 91.4941C111.471 91.5078 111.549 91.526 111.599 91.5488ZM119.159 99.1367C118.676 99.1367 118.232 99.0479 117.826 98.8701C117.425 98.6924 117.074 98.4417 116.773 98.1182C116.477 97.7946 116.247 97.4118 116.083 96.9697C115.924 96.5231 115.844 96.0355 115.844 95.5068V95.2129C115.844 94.6432 115.928 94.1283 116.097 93.668C116.265 93.2077 116.498 92.8135 116.794 92.4854C117.09 92.1572 117.427 91.9066 117.806 91.7334C118.188 91.5557 118.59 91.4668 119.009 91.4668C119.478 91.4668 119.895 91.5511 120.26 91.7197C120.624 91.8838 120.93 92.1185 121.176 92.4238C121.426 92.7246 121.616 93.0824 121.743 93.4971C121.871 93.9072 121.935 94.3607 121.935 94.8574V95.3564H116.336V94.6592H121.121V94.5635C121.112 94.1488 121.028 93.7614 120.868 93.4014C120.713 93.0368 120.481 92.7406 120.171 92.5127C119.861 92.2848 119.474 92.1709 119.009 92.1709C118.662 92.1709 118.343 92.2438 118.052 92.3896C117.765 92.5355 117.516 92.7451 117.307 93.0186C117.102 93.2874 116.942 93.6087 116.828 93.9824C116.719 94.3516 116.664 94.7617 116.664 95.2129V95.5068C116.664 95.917 116.723 96.2998 116.842 96.6553C116.965 97.0062 117.138 97.3161 117.361 97.585C117.589 97.8538 117.858 98.0635 118.168 98.2139C118.478 98.3643 118.82 98.4395 119.193 98.4395C119.631 98.4395 120.018 98.3597 120.355 98.2002C120.693 98.0361 120.996 97.7786 121.265 97.4277L121.777 97.8242C121.618 98.0612 121.417 98.2799 121.176 98.4805C120.939 98.681 120.654 98.8405 120.321 98.959C119.989 99.0775 119.601 99.1367 119.159 99.1367ZM124.361 93.1826V99H123.548V91.6035H124.327L124.361 93.1826ZM124.177 94.8438L123.814 94.6387C123.842 94.2012 123.931 93.791 124.081 93.4082C124.231 93.0254 124.434 92.6882 124.689 92.3965C124.949 92.1048 125.252 91.877 125.599 91.7129C125.95 91.5488 126.337 91.4668 126.761 91.4668C127.13 91.4668 127.46 91.5169 127.752 91.6172C128.044 91.7174 128.292 91.877 128.497 92.0957C128.702 92.3145 128.857 92.5947 128.962 92.9365C129.071 93.2783 129.126 93.6953 129.126 94.1875V99H128.306V94.1807C128.306 93.6702 128.235 93.2715 128.094 92.9844C127.952 92.6927 127.752 92.4854 127.492 92.3623C127.232 92.2393 126.925 92.1777 126.569 92.1777C126.177 92.1777 125.833 92.2643 125.537 92.4375C125.245 92.6061 124.999 92.8271 124.799 93.1006C124.603 93.3695 124.452 93.6589 124.348 93.9688C124.243 94.2741 124.186 94.5658 124.177 94.8438ZM133.426 98.2139L135.798 91.6035H136.639L133.87 99H133.275L133.426 98.2139ZM131.279 91.6035L133.679 98.2344L133.809 99H133.207L130.432 91.6035H131.279ZM138.895 91.6035V99H138.081V91.6035H138.895ZM137.938 89.4639C137.938 89.3089 137.985 89.179 138.081 89.0742C138.181 88.9648 138.318 88.9102 138.491 88.9102C138.664 88.9102 138.801 88.9648 138.901 89.0742C139.006 89.179 139.059 89.3089 139.059 89.4639C139.059 89.6143 139.006 89.7441 138.901 89.8535C138.801 89.9583 138.664 90.0107 138.491 90.0107C138.318 90.0107 138.181 89.9583 138.081 89.8535C137.985 89.7441 137.938 89.6143 137.938 89.4639ZM141.943 92.8271V99H141.13V91.6035H141.923L141.943 92.8271ZM144.562 91.5488L144.541 92.3008C144.45 92.2871 144.361 92.2757 144.274 92.2666C144.188 92.2575 144.094 92.2529 143.994 92.2529C143.639 92.2529 143.326 92.319 143.058 92.4512C142.793 92.5788 142.57 92.7588 142.388 92.9912C142.205 93.2191 142.066 93.488 141.971 93.7979C141.875 94.1032 141.82 94.4313 141.807 94.7822L141.506 94.8984C141.506 94.4154 141.556 93.9665 141.656 93.5518C141.757 93.137 141.909 92.7747 142.114 92.4648C142.324 92.1504 142.586 91.9066 142.9 91.7334C143.219 91.5557 143.593 91.4668 144.021 91.4668C144.126 91.4668 144.229 91.4759 144.329 91.4941C144.434 91.5078 144.511 91.526 144.562 91.5488ZM145.259 95.418V95.1924C145.259 94.6546 145.336 94.1579 145.491 93.7021C145.646 93.2464 145.867 92.8522 146.154 92.5195C146.446 92.1868 146.795 91.9294 147.2 91.7471C147.606 91.5602 148.057 91.4668 148.554 91.4668C149.055 91.4668 149.508 91.5602 149.914 91.7471C150.32 91.9294 150.668 92.1868 150.96 92.5195C151.252 92.8522 151.475 93.2464 151.63 93.7021C151.785 94.1579 151.862 94.6546 151.862 95.1924V95.418C151.862 95.9557 151.785 96.4525 151.63 96.9082C151.475 97.3594 151.252 97.7513 150.96 98.084C150.673 98.4167 150.326 98.6764 149.921 98.8633C149.515 99.0456 149.064 99.1367 148.567 99.1367C148.066 99.1367 147.613 99.0456 147.207 98.8633C146.801 98.6764 146.453 98.4167 146.161 98.084C145.869 97.7513 145.646 97.3594 145.491 96.9082C145.336 96.4525 145.259 95.9557 145.259 95.418ZM146.072 95.1924V95.418C146.072 95.8236 146.127 96.2087 146.236 96.5732C146.346 96.9333 146.505 97.2546 146.715 97.5371C146.924 97.8151 147.184 98.0339 147.494 98.1934C147.804 98.3529 148.162 98.4326 148.567 98.4326C148.968 98.4326 149.322 98.3529 149.627 98.1934C149.937 98.0339 150.197 97.8151 150.406 97.5371C150.616 97.2546 150.773 96.9333 150.878 96.5732C150.987 96.2087 151.042 95.8236 151.042 95.418V95.1924C151.042 94.7913 150.987 94.4108 150.878 94.0508C150.773 93.6908 150.614 93.3695 150.399 93.0869C150.19 92.8044 149.93 92.5811 149.62 92.417C149.31 92.2529 148.955 92.1709 148.554 92.1709C148.153 92.1709 147.797 92.2529 147.487 92.417C147.182 92.5811 146.922 92.8044 146.708 93.0869C146.498 93.3695 146.339 93.6908 146.229 94.0508C146.125 94.4108 146.072 94.7913 146.072 95.1924ZM154.371 93.1826V99H153.558V91.6035H154.337L154.371 93.1826ZM154.187 94.8438L153.824 94.6387C153.852 94.2012 153.94 93.791 154.091 93.4082C154.241 93.0254 154.444 92.6882 154.699 92.3965C154.959 92.1048 155.262 91.877 155.608 91.7129C155.959 91.5488 156.347 91.4668 156.771 91.4668C157.14 91.4668 157.47 91.5169 157.762 91.6172C158.053 91.7174 158.302 91.877 158.507 92.0957C158.712 92.3145 158.867 92.5947 158.972 92.9365C159.081 93.2783 159.136 93.6953 159.136 94.1875V99H158.315V94.1807C158.315 93.6702 158.245 93.2715 158.104 92.9844C157.962 92.6927 157.762 92.4854 157.502 92.3623C157.242 92.2393 156.935 92.1777 156.579 92.1777C156.187 92.1777 155.843 92.2643 155.547 92.4375C155.255 92.6061 155.009 92.8271 154.809 93.1006C154.613 93.3695 154.462 93.6589 154.357 93.9688C154.253 94.2741 154.196 94.5658 154.187 94.8438ZM162.027 93.1348V99H161.207V91.6035H161.993L162.027 93.1348ZM161.877 94.8438L161.48 94.6387C161.508 94.2012 161.59 93.791 161.727 93.4082C161.868 93.0254 162.064 92.6882 162.314 92.3965C162.565 92.1048 162.866 91.877 163.217 91.7129C163.568 91.5488 163.966 91.4668 164.413 91.4668C164.773 91.4668 165.099 91.5169 165.391 91.6172C165.687 91.7129 165.938 91.8656 166.143 92.0752C166.352 92.2803 166.514 92.5492 166.628 92.8818C166.742 93.2145 166.799 93.6133 166.799 94.0781V99H165.985V94.1055C165.985 93.6133 165.908 93.2282 165.753 92.9502C165.603 92.6722 165.391 92.474 165.117 92.3555C164.848 92.237 164.536 92.1777 164.181 92.1777C163.761 92.1777 163.406 92.2643 163.114 92.4375C162.827 92.6061 162.592 92.8271 162.41 93.1006C162.232 93.3695 162.1 93.6589 162.014 93.9688C161.927 94.2741 161.882 94.5658 161.877 94.8438ZM166.792 94.2012L166.245 94.2148C166.268 93.8548 166.35 93.5107 166.491 93.1826C166.637 92.8545 166.835 92.5628 167.086 92.3076C167.337 92.0479 167.635 91.8428 167.981 91.6924C168.332 91.542 168.727 91.4668 169.164 91.4668C169.547 91.4668 169.889 91.5192 170.189 91.624C170.49 91.7243 170.743 91.8861 170.948 92.1094C171.158 92.3281 171.317 92.6084 171.427 92.9502C171.536 93.292 171.591 93.7021 171.591 94.1807V99H170.771V94.1738C170.771 93.6497 170.693 93.2441 170.538 92.957C170.388 92.6654 170.178 92.4626 169.909 92.3486C169.64 92.2347 169.326 92.1777 168.966 92.1777C168.61 92.1823 168.298 92.2484 168.029 92.376C167.76 92.499 167.535 92.6631 167.353 92.8682C167.175 93.0687 167.038 93.2852 166.942 93.5176C166.851 93.75 166.801 93.9779 166.792 94.2012ZM176.526 99.1367C176.043 99.1367 175.599 99.0479 175.193 98.8701C174.792 98.6924 174.441 98.4417 174.141 98.1182C173.844 97.7946 173.614 97.4118 173.45 96.9697C173.291 96.5231 173.211 96.0355 173.211 95.5068V95.2129C173.211 94.6432 173.295 94.1283 173.464 93.668C173.632 93.2077 173.865 92.8135 174.161 92.4854C174.457 92.1572 174.795 91.9066 175.173 91.7334C175.556 91.5557 175.957 91.4668 176.376 91.4668C176.845 91.4668 177.262 91.5511 177.627 91.7197C177.992 91.8838 178.297 92.1185 178.543 92.4238C178.794 92.7246 178.983 93.0824 179.11 93.4971C179.238 93.9072 179.302 94.3607 179.302 94.8574V95.3564H173.703V94.6592H178.488V94.5635C178.479 94.1488 178.395 93.7614 178.235 93.4014C178.08 93.0368 177.848 92.7406 177.538 92.5127C177.228 92.2848 176.841 92.1709 176.376 92.1709C176.03 92.1709 175.711 92.2438 175.419 92.3896C175.132 92.5355 174.883 92.7451 174.674 93.0186C174.469 93.2874 174.309 93.6087 174.195 93.9824C174.086 94.3516 174.031 94.7617 174.031 95.2129V95.5068C174.031 95.917 174.09 96.2998 174.209 96.6553C174.332 97.0062 174.505 97.3161 174.729 97.585C174.956 97.8538 175.225 98.0635 175.535 98.2139C175.845 98.3643 176.187 98.4395 176.561 98.4395C176.998 98.4395 177.385 98.3597 177.723 98.2002C178.06 98.0361 178.363 97.7786 178.632 97.4277L179.145 97.8242C178.985 98.0612 178.785 98.2799 178.543 98.4805C178.306 98.681 178.021 98.8405 177.688 98.959C177.356 99.0775 176.968 99.1367 176.526 99.1367ZM181.729 93.1826V99H180.915V91.6035H181.694L181.729 93.1826ZM181.544 94.8438L181.182 94.6387C181.209 94.2012 181.298 93.791 181.448 93.4082C181.599 93.0254 181.801 92.6882 182.057 92.3965C182.316 92.1048 182.619 91.877 182.966 91.7129C183.317 91.5488 183.704 91.4668 184.128 91.4668C184.497 91.4668 184.827 91.5169 185.119 91.6172C185.411 91.7174 185.659 91.877 185.864 92.0957C186.069 92.3145 186.224 92.5947 186.329 92.9365C186.438 93.2783 186.493 93.6953 186.493 94.1875V99H185.673V94.1807C185.673 93.6702 185.602 93.2715 185.461 92.9844C185.32 92.6927 185.119 92.4854 184.859 92.3623C184.6 92.2393 184.292 92.1777 183.937 92.1777C183.545 92.1777 183.201 92.2643 182.904 92.4375C182.613 92.6061 182.367 92.8271 182.166 93.1006C181.97 93.3695 181.82 93.6589 181.715 93.9688C181.61 94.2741 181.553 94.5658 181.544 94.8438ZM191.408 91.6035V92.2734H187.703V91.6035H191.408ZM189.063 89.7031H189.877V97.2021C189.877 97.5439 189.923 97.8014 190.014 97.9746C190.105 98.1478 190.223 98.264 190.369 98.3232C190.515 98.3825 190.672 98.4121 190.841 98.4121C190.964 98.4121 191.082 98.4053 191.196 98.3916C191.31 98.3734 191.413 98.3551 191.504 98.3369L191.538 99.0273C191.438 99.0592 191.308 99.0843 191.148 99.1025C190.989 99.1253 190.829 99.1367 190.67 99.1367C190.355 99.1367 190.077 99.0798 189.836 98.9658C189.594 98.8473 189.405 98.6468 189.269 98.3643C189.132 98.0771 189.063 97.6875 189.063 97.1953V89.7031Z" fill="black" fill-opacity="0.87"/>
<path d="M486.465 95.8965H487.306C487.237 96.5664 487.053 97.1452 486.752 97.6328C486.451 98.1159 486.041 98.4873 485.521 98.7471C485.002 99.0068 484.375 99.1367 483.642 99.1367C483.076 99.1367 482.564 99.0296 482.104 98.8154C481.648 98.6012 481.256 98.2982 480.928 97.9062C480.6 97.5098 480.347 97.0358 480.169 96.4844C479.991 95.9329 479.902 95.32 479.902 94.6455V93.4014C479.902 92.7269 479.991 92.1162 480.169 91.5693C480.347 91.0179 480.602 90.5439 480.935 90.1475C481.267 89.751 481.666 89.4456 482.131 89.2314C482.596 89.0173 483.12 88.9102 483.703 88.9102C484.41 88.9102 485.02 89.04 485.535 89.2998C486.05 89.555 486.456 89.9242 486.752 90.4072C487.053 90.8903 487.237 91.4736 487.306 92.1572H486.465C486.401 91.6195 486.26 91.1637 486.041 90.79C485.822 90.4163 485.519 90.1315 485.132 89.9355C484.749 89.735 484.273 89.6348 483.703 89.6348C483.238 89.6348 482.824 89.7236 482.459 89.9014C482.094 90.0791 481.785 90.3343 481.529 90.667C481.274 90.9951 481.078 91.3893 480.941 91.8496C480.809 92.3099 480.743 92.8226 480.743 93.3877V94.6455C480.743 95.1924 480.807 95.696 480.935 96.1562C481.062 96.6165 481.249 97.0153 481.495 97.3525C481.746 97.6898 482.051 97.9518 482.411 98.1387C482.771 98.3255 483.181 98.4189 483.642 98.4189C484.229 98.4189 484.719 98.3255 485.111 98.1387C485.508 97.9473 485.815 97.6647 486.034 97.291C486.253 96.9173 486.396 96.4525 486.465 95.8965ZM488.714 95.418V95.1924C488.714 94.6546 488.791 94.1579 488.946 93.7021C489.101 93.2464 489.322 92.8522 489.609 92.5195C489.901 92.1868 490.25 91.9294 490.655 91.7471C491.061 91.5602 491.512 91.4668 492.009 91.4668C492.51 91.4668 492.964 91.5602 493.369 91.7471C493.775 91.9294 494.123 92.1868 494.415 92.5195C494.707 92.8522 494.93 93.2464 495.085 93.7021C495.24 94.1579 495.317 94.6546 495.317 95.1924V95.418C495.317 95.9557 495.24 96.4525 495.085 96.9082C494.93 97.3594 494.707 97.7513 494.415 98.084C494.128 98.4167 493.782 98.6764 493.376 98.8633C492.97 99.0456 492.519 99.1367 492.022 99.1367C491.521 99.1367 491.068 99.0456 490.662 98.8633C490.257 98.6764 489.908 98.4167 489.616 98.084C489.325 97.7513 489.101 97.3594 488.946 96.9082C488.791 96.4525 488.714 95.9557 488.714 95.418ZM489.527 95.1924V95.418C489.527 95.8236 489.582 96.2087 489.691 96.5732C489.801 96.9333 489.96 97.2546 490.17 97.5371C490.38 97.8151 490.639 98.0339 490.949 98.1934C491.259 98.3529 491.617 98.4326 492.022 98.4326C492.424 98.4326 492.777 98.3529 493.082 98.1934C493.392 98.0339 493.652 97.8151 493.861 97.5371C494.071 97.2546 494.228 96.9333 494.333 96.5732C494.442 96.2087 494.497 95.8236 494.497 95.418V95.1924C494.497 94.7913 494.442 94.4108 494.333 94.0508C494.228 93.6908 494.069 93.3695 493.854 93.0869C493.645 92.8044 493.385 92.5811 493.075 92.417C492.765 92.2529 492.41 92.1709 492.009 92.1709C491.608 92.1709 491.252 92.2529 490.942 92.417C490.637 92.5811 490.377 92.8044 490.163 93.0869C489.953 93.3695 489.794 93.6908 489.685 94.0508C489.58 94.4108 489.527 94.7913 489.527 95.1924ZM497.826 92.8271V99H497.013V91.6035H497.806L497.826 92.8271ZM500.444 91.5488L500.424 92.3008C500.333 92.2871 500.244 92.2757 500.157 92.2666C500.071 92.2575 499.977 92.2529 499.877 92.2529C499.521 92.2529 499.209 92.319 498.94 92.4512C498.676 92.5788 498.453 92.7588 498.271 92.9912C498.088 93.2191 497.949 93.488 497.854 93.7979C497.758 94.1032 497.703 94.4313 497.689 94.7822L497.389 94.8984C497.389 94.4154 497.439 93.9665 497.539 93.5518C497.639 93.137 497.792 92.7747 497.997 92.4648C498.207 92.1504 498.469 91.9066 498.783 91.7334C499.102 91.5557 499.476 91.4668 499.904 91.4668C500.009 91.4668 500.112 91.4759 500.212 91.4941C500.317 91.5078 500.394 91.526 500.444 91.5488ZM501.142 95.418V95.1924C501.142 94.6546 501.219 94.1579 501.374 93.7021C501.529 93.2464 501.75 92.8522 502.037 92.5195C502.329 92.1868 502.677 91.9294 503.083 91.7471C503.489 91.5602 503.94 91.4668 504.437 91.4668C504.938 91.4668 505.391 91.5602 505.797 91.7471C506.202 91.9294 506.551 92.1868 506.843 92.5195C507.134 92.8522 507.358 93.2464 507.513 93.7021C507.668 94.1579 507.745 94.6546 507.745 95.1924V95.418C507.745 95.9557 507.668 96.4525 507.513 96.9082C507.358 97.3594 507.134 97.7513 506.843 98.084C506.556 98.4167 506.209 98.6764 505.804 98.8633C505.398 99.0456 504.947 99.1367 504.45 99.1367C503.949 99.1367 503.495 99.0456 503.09 98.8633C502.684 98.6764 502.336 98.4167 502.044 98.084C501.752 97.7513 501.529 97.3594 501.374 96.9082C501.219 96.4525 501.142 95.9557 501.142 95.418ZM501.955 95.1924V95.418C501.955 95.8236 502.01 96.2087 502.119 96.5732C502.229 96.9333 502.388 97.2546 502.598 97.5371C502.807 97.8151 503.067 98.0339 503.377 98.1934C503.687 98.3529 504.045 98.4326 504.45 98.4326C504.851 98.4326 505.204 98.3529 505.51 98.1934C505.82 98.0339 506.079 97.8151 506.289 97.5371C506.499 97.2546 506.656 96.9333 506.761 96.5732C506.87 96.2087 506.925 95.8236 506.925 95.418V95.1924C506.925 94.7913 506.87 94.4108 506.761 94.0508C506.656 93.6908 506.496 93.3695 506.282 93.0869C506.073 92.8044 505.813 92.5811 505.503 92.417C505.193 92.2529 504.838 92.1709 504.437 92.1709C504.035 92.1709 503.68 92.2529 503.37 92.417C503.065 92.5811 502.805 92.8044 502.591 93.0869C502.381 93.3695 502.222 93.6908 502.112 94.0508C502.007 94.4108 501.955 94.7913 501.955 95.1924ZM508.989 95.418V95.1924C508.989 94.6546 509.067 94.1579 509.222 93.7021C509.377 93.2464 509.598 92.8522 509.885 92.5195C510.176 92.1868 510.525 91.9294 510.931 91.7471C511.336 91.5602 511.787 91.4668 512.284 91.4668C512.785 91.4668 513.239 91.5602 513.645 91.7471C514.05 91.9294 514.399 92.1868 514.69 92.5195C514.982 92.8522 515.205 93.2464 515.36 93.7021C515.515 94.1579 515.593 94.6546 515.593 95.1924V95.418C515.593 95.9557 515.515 96.4525 515.36 96.9082C515.205 97.3594 514.982 97.7513 514.69 98.084C514.403 98.4167 514.057 98.6764 513.651 98.8633C513.246 99.0456 512.795 99.1367 512.298 99.1367C511.797 99.1367 511.343 99.0456 510.938 98.8633C510.532 98.6764 510.183 98.4167 509.892 98.084C509.6 97.7513 509.377 97.3594 509.222 96.9082C509.067 96.4525 508.989 95.9557 508.989 95.418ZM509.803 95.1924V95.418C509.803 95.8236 509.857 96.2087 509.967 96.5732C510.076 96.9333 510.236 97.2546 510.445 97.5371C510.655 97.8151 510.915 98.0339 511.225 98.1934C511.535 98.3529 511.892 98.4326 512.298 98.4326C512.699 98.4326 513.052 98.3529 513.357 98.1934C513.667 98.0339 513.927 97.8151 514.137 97.5371C514.346 97.2546 514.504 96.9333 514.608 96.5732C514.718 96.2087 514.772 95.8236 514.772 95.418V95.1924C514.772 94.7913 514.718 94.4108 514.608 94.0508C514.504 93.6908 514.344 93.3695 514.13 93.0869C513.92 92.8044 513.66 92.5811 513.351 92.417C513.041 92.2529 512.685 92.1709 512.284 92.1709C511.883 92.1709 511.528 92.2529 511.218 92.417C510.912 92.5811 510.653 92.8044 510.438 93.0869C510.229 93.3695 510.069 93.6908 509.96 94.0508C509.855 94.4108 509.803 94.7913 509.803 95.1924ZM520.084 91.6035V92.2734H516.379V91.6035H520.084ZM517.739 89.7031H518.553V97.2021C518.553 97.5439 518.598 97.8014 518.689 97.9746C518.781 98.1478 518.899 98.264 519.045 98.3232C519.191 98.3825 519.348 98.4121 519.517 98.4121C519.64 98.4121 519.758 98.4053 519.872 98.3916C519.986 98.3734 520.089 98.3551 520.18 98.3369L520.214 99.0273C520.114 99.0592 519.984 99.0843 519.824 99.1025C519.665 99.1253 519.505 99.1367 519.346 99.1367C519.031 99.1367 518.753 99.0798 518.512 98.9658C518.27 98.8473 518.081 98.6468 517.944 98.3643C517.808 98.0771 517.739 97.6875 517.739 97.1953V89.7031ZM527.945 98.4326C528.292 98.4326 528.615 98.3688 528.916 98.2412C529.221 98.109 529.472 97.9154 529.668 97.6602C529.868 97.4004 529.982 97.0837 530.01 96.71H530.789C530.766 97.1794 530.623 97.5986 530.358 97.9678C530.099 98.3324 529.757 98.6195 529.333 98.8291C528.914 99.0342 528.451 99.1367 527.945 99.1367C527.43 99.1367 526.975 99.0433 526.578 98.8564C526.186 98.6696 525.858 98.4098 525.594 98.0771C525.329 97.7399 525.129 97.348 524.992 96.9014C524.86 96.4502 524.794 95.9648 524.794 95.4453V95.1582C524.794 94.6387 524.86 94.1556 524.992 93.709C525.129 93.2578 525.329 92.8659 525.594 92.5332C525.858 92.196 526.186 91.9339 526.578 91.7471C526.97 91.5602 527.424 91.4668 527.938 91.4668C528.467 91.4668 528.941 91.5739 529.36 91.7881C529.784 92.0023 530.121 92.3053 530.372 92.6973C530.627 93.0892 530.766 93.554 530.789 94.0918H530.01C529.987 93.6953 529.882 93.3535 529.695 93.0664C529.508 92.7793 529.262 92.5583 528.957 92.4033C528.652 92.2484 528.312 92.1709 527.938 92.1709C527.519 92.1709 527.161 92.2529 526.865 92.417C526.569 92.5765 526.327 92.7975 526.141 93.0801C525.958 93.3581 525.824 93.6771 525.737 94.0371C525.651 94.3926 525.607 94.7663 525.607 95.1582V95.4453C525.607 95.8418 525.648 96.2201 525.73 96.5801C525.817 96.9355 525.951 97.2523 526.134 97.5303C526.321 97.8083 526.562 98.0293 526.858 98.1934C527.159 98.3529 527.521 98.4326 527.945 98.4326ZM533.346 88.5V99H532.532V88.5H533.346ZM535.13 95.418V95.1924C535.13 94.6546 535.207 94.1579 535.362 93.7021C535.517 93.2464 535.738 92.8522 536.025 92.5195C536.317 92.1868 536.666 91.9294 537.071 91.7471C537.477 91.5602 537.928 91.4668 538.425 91.4668C538.926 91.4668 539.38 91.5602 539.785 91.7471C540.191 91.9294 540.539 92.1868 540.831 92.5195C541.123 92.8522 541.346 93.2464 541.501 93.7021C541.656 94.1579 541.733 94.6546 541.733 95.1924V95.418C541.733 95.9557 541.656 96.4525 541.501 96.9082C541.346 97.3594 541.123 97.7513 540.831 98.084C540.544 98.4167 540.198 98.6764 539.792 98.8633C539.386 99.0456 538.935 99.1367 538.438 99.1367C537.937 99.1367 537.484 99.0456 537.078 98.8633C536.673 98.6764 536.324 98.4167 536.032 98.084C535.741 97.7513 535.517 97.3594 535.362 96.9082C535.207 96.4525 535.13 95.9557 535.13 95.418ZM535.943 95.1924V95.418C535.943 95.8236 535.998 96.2087 536.107 96.5732C536.217 96.9333 536.376 97.2546 536.586 97.5371C536.796 97.8151 537.055 98.0339 537.365 98.1934C537.675 98.3529 538.033 98.4326 538.438 98.4326C538.84 98.4326 539.193 98.3529 539.498 98.1934C539.808 98.0339 540.068 97.8151 540.277 97.5371C540.487 97.2546 540.644 96.9333 540.749 96.5732C540.858 96.2087 540.913 95.8236 540.913 95.418V95.1924C540.913 94.7913 540.858 94.4108 540.749 94.0508C540.644 93.6908 540.485 93.3695 540.271 93.0869C540.061 92.8044 539.801 92.5811 539.491 92.417C539.181 92.2529 538.826 92.1709 538.425 92.1709C538.024 92.1709 537.668 92.2529 537.358 92.417C537.053 92.5811 536.793 92.8044 536.579 93.0869C536.369 93.3695 536.21 93.6908 536.101 94.0508C535.996 94.4108 535.943 94.7913 535.943 95.1924ZM548.166 97.291V91.6035H548.986V99H548.2L548.166 97.291ZM548.316 95.9238L548.74 95.9102C548.74 96.375 548.686 96.8034 548.576 97.1953C548.467 97.5872 548.296 97.929 548.063 98.2207C547.831 98.5124 547.53 98.738 547.161 98.8975C546.792 99.057 546.348 99.1367 545.828 99.1367C545.468 99.1367 545.138 99.0866 544.837 98.9863C544.541 98.8815 544.285 98.7174 544.071 98.4941C543.857 98.2708 543.691 97.9814 543.572 97.626C543.458 97.2705 543.401 96.8398 543.401 96.334V91.6035H544.215V96.3477C544.215 96.7441 544.258 97.0745 544.345 97.3389C544.436 97.6032 544.559 97.8151 544.714 97.9746C544.873 98.1341 545.056 98.248 545.261 98.3164C545.466 98.3848 545.687 98.4189 545.924 98.4189C546.525 98.4189 546.999 98.3027 547.346 98.0703C547.697 97.8379 547.945 97.5326 548.091 97.1543C548.241 96.7715 548.316 96.3613 548.316 95.9238ZM555.932 97.5645V88.5H556.752V99H555.986L555.932 97.5645ZM550.798 95.377V95.2334C550.798 94.6592 550.864 94.1419 550.996 93.6816C551.128 93.2168 551.317 92.8203 551.563 92.4922C551.814 92.1595 552.115 91.9066 552.466 91.7334C552.817 91.5557 553.213 91.4668 553.655 91.4668C554.088 91.4668 554.471 91.5374 554.804 91.6787C555.136 91.82 555.421 92.0228 555.658 92.2871C555.9 92.5514 556.093 92.8659 556.239 93.2305C556.39 93.5951 556.499 94.0007 556.567 94.4473V96.2725C556.513 96.6917 556.412 97.0768 556.267 97.4277C556.121 97.7741 555.927 98.0771 555.686 98.3369C555.444 98.5921 555.152 98.7904 554.811 98.9316C554.473 99.0684 554.084 99.1367 553.642 99.1367C553.204 99.1367 552.81 99.0456 552.459 98.8633C552.108 98.681 551.81 98.4235 551.563 98.0908C551.317 97.7536 551.128 97.3548 550.996 96.8945C550.864 96.4342 550.798 95.9284 550.798 95.377ZM551.618 95.2334V95.377C551.618 95.8099 551.661 96.2109 551.748 96.5801C551.835 96.9492 551.967 97.2705 552.145 97.5439C552.322 97.8174 552.548 98.0316 552.821 98.1865C553.095 98.3415 553.418 98.4189 553.792 98.4189C554.261 98.4189 554.656 98.3301 554.975 98.1523C555.294 97.9701 555.549 97.7308 555.74 97.4346C555.932 97.1338 556.071 96.8057 556.157 96.4502V94.3242C556.103 94.0827 556.023 93.8366 555.918 93.5859C555.813 93.3353 555.67 93.1051 555.487 92.8955C555.31 92.6813 555.082 92.5104 554.804 92.3828C554.53 92.2507 554.198 92.1846 553.806 92.1846C553.427 92.1846 553.102 92.262 552.828 92.417C552.555 92.5719 552.327 92.7884 552.145 93.0664C551.967 93.3398 551.835 93.6611 551.748 94.0303C551.661 94.3994 551.618 94.8005 551.618 95.2334Z" fill="black" fill-opacity="0.87"/>
<path d="M494 43.0086L489.012 40.1003L488.988 45.8738L494 43.0086ZM259.998 42.5L489.498 43.4892L489.502 42.4892L260.002 41.5L259.998 42.5Z" fill="black"/>
<path d="M557.951 72.9508H494V9H557.951V72.9508Z" fill="#4CB748"/>
<path d="M501.454 49.0837C501.454 48.2074 501.729 47.5083 502.29 46.9668C502.852 46.4055 503.57 46.1298 504.437 46.1298C505.313 46.1298 506.032 46.4055 506.583 46.9668C507.145 47.4985 507.42 48.2074 507.42 49.0837C507.42 49.96 507.145 50.6788 506.583 51.2301C506.022 51.7618 505.303 52.0277 504.437 52.0277C503.561 52.0277 502.842 51.7618 502.29 51.2301C501.729 50.6788 501.454 49.96 501.454 49.0837ZM501.454 34.216C501.454 33.3397 501.729 32.6406 502.29 32.0991C502.852 31.5378 503.57 31.2621 504.437 31.2621C505.313 31.2621 506.032 31.5378 506.583 32.0991C507.145 32.6308 507.42 33.3397 507.42 34.216C507.42 35.0923 507.145 35.8111 506.583 36.3625C506.022 36.8941 505.303 37.16 504.437 37.16C503.561 37.16 502.842 36.8941 502.29 36.3625C501.729 35.8012 501.454 35.0923 501.454 34.216Z" fill="white"/>
<path d="M524.779 42.5655C524.021 42.5655 523.371 42.4572 522.81 42.2406C522.249 41.9944 521.756 41.7089 521.313 41.3643C520.9 41 520.526 40.6061 520.181 40.2025C519.866 39.7889 519.551 39.4148 519.236 39.0701C518.94 38.7058 518.625 38.4105 518.29 38.1938C517.975 37.9477 517.611 37.8295 517.198 37.8295C516.055 37.8295 515.484 38.4991 515.484 39.8381V42.3883H512.383V39.8381C512.383 38.4006 512.806 37.2585 513.663 36.4117C514.539 35.5354 515.691 35.1021 517.129 35.1021C517.887 35.1021 518.537 35.2203 519.098 35.4664C519.659 35.6831 520.142 35.9785 520.555 36.3428C520.988 36.6874 521.372 37.0615 521.687 37.4751C522.032 37.8886 522.347 38.2726 522.633 38.6369C522.948 38.9815 523.263 39.2671 523.578 39.5132C523.922 39.7298 524.297 39.8381 524.71 39.8381C525.852 39.8381 526.423 39.1686 526.423 37.8295V35.2794H529.525V37.8295C529.525 39.2375 529.092 40.3797 528.215 41.256C527.359 42.1224 526.217 42.5655 524.779 42.5655Z" fill="white"/>
<path d="M546.116 44.3871L544.767 51.6732H542.217L543.566 44.3871H537.737L536.388 51.6732H533.838L535.186 44.3871H532.085V42.0141H535.62L536.929 35.0923H533.316V32.7194H537.362L538.711 25.4332H541.262L539.913 32.7194H545.742L547.09 25.4332H549.641L548.292 32.7194H551.393V35.0923H547.858L546.549 42.0141H550.123V44.3871H546.116ZM543.999 42.0141L545.308 35.0923H539.479L538.17 42.0141H543.999Z" fill="white"/>
</svg>
